# xmcd CD database file
# Copyright (C) 1993-1998 Ti Kan
#
# Track frame offsets:
# 150
# 21750
# 42675
# 64362
# 85555
# 102487
# 123350
# 138075
# 161782
# 175560
# 198345
# 225777
# 251070
# 273000
# 290987
# 313112
#
# Disc length: 4445 seconds
# Revision: 0
# Processed by: cddbd v1.4b41PL1 Copyright (c) Steve Scherf et al.
# Submitted via: CDSpectrumPro v3.3.333
#
DISCID=de115b10
DTITLE=Santana - Best Ballads
DYEAR=1900
DGENRE=
TTITLE0=Chill Out (Things Gonna Change)
TTITLE1=Samba Pa Ti
TTITLE2=Flor D'Luna (Moonflower)
TTITLE3=I Love You Much Too Much
TTITLE4=Before We Go
TTITLE5=Revelations
TTITLE6=Black Magic Woman
TTITLE7=One With You
TTITLE8=Guru's Song
TTITLE9=Europa (Earth's Cry Heaven's Smile)
TTITLE10=En Aranjues Con Tu Amor
TTITLE11=Taboo
TTITLE12=Brightest Star
TTITLE13=Love Is You
TTITLE14=Contigo (With You)
TTITLE15=Practice What You Preach
EXTD=
EXTT0=
EXTT1=
EXTT2=
EXTT3=
EXTT4=
EXTT5=
EXTT6=
EXTT7=
EXTT8=
EXTT9=
EXTT10=
EXTT11=
EXTT12=
EXTT13=
EXTT14=
EXTT15=
PLAYORDER=
